<svg width="512" height="512" viewBox="0 0 512 512" fill="none" xmlns="http://www.w3.org/2000/svg">
  <rect width="512" height="512" rx="128" fill="black"/>
  <path d="M180 360V152H284.5C305.167 152 322.917 155.917 337.75 163.75C352.583 171.417 363.75 182.25 371.25 196.25C378.917 210.083 382.75 226.083 382.75 244.25C382.75 262.25 378.917 278.167 371.25 292C363.75 305.833 352.583 316.667 337.75 324.5C322.917 332.167 305.167 336 284.5 336H232V360H180ZM232 296H286C296.333 296 305.083 294.083 312.25 290.25C319.583 286.25 325.083 280.75 328.75 273.75C332.583 266.583 334.5 258.333 334.5 249V239.5C334.5 230.167 332.583 222 328.75 215C325.083 207.833 319.583 202.417 312.25 198.75C305.083 194.917 296.333 193 286 193H232V296Z" fill="white"/>
  <path d="M290 290L360 360H420L335 275" stroke="white" stroke-width="40" stroke-linecap="round"/>
</svg>